<?xml version="1.0" encoding="UTF-8"?><!DOCTYPE svg PUBLIC "-//W3C//DTD SVG 1.1//EN" "http://www.w3.org/Graphics/SVG/1.1/DTD/svg11.dtd"><svg xmlns="http://www.w3.org/2000/svg" xmlns:xlink="http://www.w3.org/1999/xlink"><symbol id="logo" viewBox="0 0 1200.23 2087.21"><title>Untitled-1</title><g id="Layer_14" data-name="Layer 14"><path d="M1535.26,161.4l-.41,0-.06.11Z" transform="translate(-1045.62 -130)"/><path d="M1645.06,130a533.8,533.8,0,0,0-66.33,4.29q-6.86,10.74-12.87,22c-1.41,2.64-2.8,5.28-4.14,8a326.19,326.19,0,0,0-21,52.71,320.62,320.62,0,0,0,5.72,202.31,331.47,331.47,0,0,0,31,63.36,293.11,293.11,0,0,1-39-58.8,302,302,0,0,1-3.66-262.34l.06-.11q5.3-11.3,11.5-22A527.14,527.14,0,0,0,1460.86,163c-1.7,1.39-3.35,2.82-5,4.24a233.26,233.26,0,0,0-24.74,24.66c-.89,1-1.8,2.06-2.67,3.11-28.35,34.22-44.91,75.35-44.91,119.62,0,3.77.13,7.52.37,11.24a176.8,176.8,0,0,0,9,45.37,187.07,187.07,0,0,1-18.21-60.28,177.89,177.89,0,0,1-1.42-22,182.92,182.92,0,0,1,15-72.15,204.5,204.5,0,0,1,10.63-21.32c1.35-2.35,2.82-4.65,4.26-7,1.24-2,2.48-3.95,3.78-5.9a247.93,247.93,0,0,0-40.6,21.81,219.51,219.51,0,0,0-33.3,27.23,193.68,193.68,0,0,0-22.53,26.93c-18.78,27.23-29.51,58.55-29.51,91.89,0,4.84.3,9.62.74,14.37a98.37,98.37,0,0,1,.71-91.75,549,549,0,0,0-56,60.59c-3.57,20.73-3.62,44.22.33,68.81l26.44,66.71a776.2,776.2,0,0,1,89.14,8.94c22.1,3.52,43.73,7.87,64.7,13.19,10.68,2.7,21.14,5.7,31.48,8.84a450.26,450.26,0,0,0,53.94,18.95,544.61,544.61,0,0,0,78.58,16q24.9,3.23,51.07,4.42c7.36.32,14.78.53,22.27.59,1.92,0,3.82.09,5.75.09V130.13C1648.47,130.12,1646.78,130,1645.06,130Z" transform="translate(-1045.62 -130)"/><path d="M1158,728.77l0-6.19c0,.75,0,1.48,0,2.23C1157.92,726.14,1158,727.45,1158,728.77Z" transform="translate(-1045.62 -130)"/><path d="M1158.44,746q-.37-8.54-.45-17.2.06,8.54.18,17Z" transform="translate(-1045.62 -130)"/><path d="M1105,693.43c.3,2.13.59,4.26.91,6.36l-.46-6.39Z" transform="translate(-1045.62 -130)"/><path d="M1158.17,745.74q-.12-8.44-.18-17c0-1.32-.07-2.63-.07-4,0-.75,0-1.48,0-2.23.42-91.52,26.14-173.48,66.67-229.42-16.14-30.79-27.67-68-32.86-108.85-.79-6.2-1.39-12.51-1.87-18.86-39.52,17.7-71.76,58.18-89.32,110.47-2.72,28.72-4.19,58.85-4.19,89.93s1.47,61.22,4.19,89.94q1.85,19.29,4.44,37.64l.45,0,.46,6.39,15.73,221.69,21.54,116,17.4-139.4,5.72.71c-.66-6.73-1.29-13.55-1.88-20.52C1161,837.62,1158.84,792.89,1158.17,745.74Z" transform="translate(-1045.62 -130)"/><path d="M1086.57,1004.55c7.82-3.39,18-.36,29.79,8l-5.18-46.23c-59.36-54.13-68.11,29-65,71,6.1,83.09,38.63,165,70.74,241.3v-40.21C1071,1117.47,1056.92,1017.43,1086.57,1004.55Z" transform="translate(-1045.62 -130)"/><path d="M1116.9,1163.51l-25.8-84.29c5.92,39.76,13.39,79.42,25.8,117.72C1116.42,1188.06,1116.9,1172.84,1116.9,1163.51Z" transform="translate(-1045.62 -130)"/><path d="M1111.15,1661.69l.59.62c-.08-1.84-.17-3.66-.24-5.5C1111.4,1658.44,1111.23,1660.05,1111.15,1661.69Z" transform="translate(-1045.62 -130)"/><path d="M1125.24,1409.89l.36-.23c.13-.8.25-1.61.38-2.41C1125.74,1408.14,1125.49,1409,1125.24,1409.89Z" transform="translate(-1045.62 -130)"/><path d="M1525.27,1626.79a80.29,80.29,0,0,0,18.67-7.5C1537.39,1621.59,1531.2,1624.11,1525.27,1626.79Z" transform="translate(-1045.62 -130)"/><path d="M1223.51,1363.82l0,0,.11.61C1223.56,1364.25,1223.54,1364,1223.51,1363.82Z" transform="translate(-1045.62 -130)"/><path d="M1553.16,1548l11.15-5.08-.21-.29C1560.37,1544.34,1556.69,1546.09,1553.16,1548Z" transform="translate(-1045.62 -130)"/><path d="M1623.18,1424.42c-1.4-.64-2.82-1.26-4.18-2l-47.63-22.73-9.82-4.69a35.4,35.4,0,0,0-19.26.06q-5.43,2.89-10.88,5.85-49.73,26.86-101.13,57.39-8.08,4.82-16.19,9.72c-13.09,7.91-26.21,15.93-39.38,24.17q-45.06,28.2-87.41,56.89-13.63,9.23-26.93,18.46c-2.92,1.61-5.81,3.17-8.71,4.75-18.11,7.48-35.62,8.15-49.59.08-23.46-13.54-30.86-47.8-22.16-86.89-4,21-.49,39.61,11.81,51.14,23,21.55,68.41,11.33,107.23-22L1251.27,1467a41,41,0,0,1-3.16-3.16,42,42,0,0,1-4.74-6.53,44.46,44.46,0,0,1-2.43-4.58c-2.46-5.92-4.6-12.8-4.68-19.24l-5.7-31L1229,1394l-5.42-29.5-.11-.61-2.21-12-10.76-58.55c-4.48-19-9.8-38.71-16.08-59q-3.65-11.76-7.5-23.07c-14-41.3-29.76-78.07-45.41-107.2a945.6,945.6,0,0,1,6.13,109.38c0,46.84-3.16,90.92-8.73,129.39q-2.57,17.84-5.82,34t-7.12,30.41c-.13.8-.25,1.61-.38,2.41-9.69,59.43-15.14,125.59-15.14,195.39,0,10.81.18,21.5.43,32.13.16,6.58.35,13.13.61,19.63.07,1.84.16,3.66.24,5.5,2.87,3.06,5.81,6.26,8.74,9.47,12.55,13.71,25.59,28.64,38.79,44.55,29.1,35.1,53.84,68.71,71.37,96.08a475.23,475.23,0,0,0-39.23-41.33c-27.53-25.85-55-46.08-76.42-57.49-1.32-.7-2.66-1.44-3.93-2.07q.75,17.18,2.58,34c1.56,14.35,3.77,28.51,6.48,42.49a518.48,518.48,0,0,0,12.58,51c13.66,45.33,28,96.25,52.79,135.6,24,38.25,58.17,67.77,91,98.71s69.64,55.1,109.61,77.08a563.16,563.16,0,0,1-13.6-80.06c-1.71-17.09-2.66-33.61-3-49.18a411.56,411.56,0,0,0,11.1,45.24c14.25,46.68,34.66,85.6,54.55,107.87,5.81,2.47,11.71,4.75,17.63,7q12.89,4.93,26.07,9.23a542.88,542.88,0,0,0,168,26.61c1.08,0,2.15-.07,3.22-.08V1601.5c-39.49.7-76,7.14-106.24,17.79a80.29,80.29,0,0,1-18.67,7.5,87.72,87.72,0,0,1-40.47,1c-19.45-4-35.74-14.31-45.13-28.1L1553.16,1548c3.53-1.92,7.21-3.67,10.94-5.37q5.1-2.33,10.43-4.37a205.73,205.73,0,0,1,73.94-13.56c.58,0,1.14.06,1.71.06v-94.09A66.71,66.71,0,0,1,1623.18,1424.42Z" transform="translate(-1045.62 -130)"/><path d="M1564.31,1542.93l10.22-4.66q-5.33,2.06-10.43,4.37Z" transform="translate(-1045.62 -130)"/><path d="M1184.11,1060.15c-.65-6.72-2.85-15.55-6.29-25.44C1179.35,1042.48,1181.46,1051,1184.11,1060.15Z" transform="translate(-1045.62 -130)"/><path d="M1612.35,1027.75a107.11,107.11,0,0,0-11.48,26.86C1605.07,1045.67,1608.93,1036.71,1612.35,1027.75Z" transform="translate(-1045.62 -130)"/><path d="M1649,942.86c-5.31,0-10.55-.29-15.72-.8a154.45,154.45,0,0,1-46.7-12.32c-3.38-1.48-6.75-3-10-4.72l10.16-14.52c-8.19-2.54-16.45-5.06-24.84-7.49-7.73-2.24-15.4-4.36-23-6.43-70.56-19.11-136.89-30.91-192.17-35.22q-13-1-25.11-1.48l-2.66-.09a421.26,421.26,0,0,0-48.23.89c-1.53.67-3.07,1.3-4.6,2-15.67,7.61-28.38,18.23-37.23,30l-33.18,1.16-57.35,2-6.74.24v82.31c2.25.84,4.4,1.74,6.74,2.51,5,1.65,10.22,3.17,15.6,4.51a238.61,238.61,0,0,1,23.93,49.26c3.44,9.89,5.64,18.72,6.29,25.44,3.23,11.12,7.24,23,12,35.29,13.41,34.46,29.25,62.89,41.77,76.84a19.16,19.16,0,0,0,5.89,6.39c8.89,6.54,25.46,11.5,45.28,13.19H1479a80.72,80.72,0,0,0,13.66-3.88,78.63,78.63,0,0,0,24.23-14.86c1-1,2.07-2,3.1-3a396.51,396.51,0,0,0,55.91-69.78c1.1-1.73,2.22-3.42,3.3-5.17a411.45,411.45,0,0,0,21.68-40.55,107.11,107.11,0,0,1,11.48-26.86c9.8-15.93,23.11-25.87,37.83-26.43V942.8C1649.77,942.8,1649.37,942.86,1649,942.86Zm-302,9.27c-9,8.83-21.21,16.64-35.78,23-.8.35-1.65.66-2.46,1-3.26,1.37-6.59,2.68-10.07,3.9L1280.28,989l-3.48,1.69-19.78,9.61a84.68,84.68,0,0,0-20,19.61,97.32,97.32,0,0,0-9.7,16.29,101.85,101.85,0,0,0-4,9.65,109.74,109.74,0,0,0-5.22,22.42,242.16,242.16,0,0,1-7.53-28.19c-1.59-7.9-2.77-15.69-3.56-23.29a219.46,219.46,0,0,1-1.18-24,108.06,108.06,0,0,1,1.89-18.62c.3-9.26,2.57-17.6,7-24.67a40.75,40.75,0,0,1,2.56-3.71c.18-.24.43-.42.63-.65s.61-.6.9-.93c5.71-6.45,13.29-11,22.3-13.67a200.77,200.77,0,0,1,31.49-8c1.73-.32,3.47-.63,5.28-.93,23.53-3.93,52.77-6.39,84.71-6.78l1.74,0c0,.31.09.62.09.94C1364.43,928.83,1358.09,941.25,1347,952.13Z" transform="translate(-1045.62 -130)"/><path d="M1765.11,161.4l.41,0,0,.11Z" transform="translate(-1045.62 -130)"/><path d="M1655.31,130a533.77,533.77,0,0,1,66.32,4.29q6.87,10.74,12.88,22c1.41,2.64,2.79,5.28,4.14,8A325.24,325.24,0,0,1,1759.59,217a320.52,320.52,0,0,1-5.71,202.31,331.47,331.47,0,0,1-31,63.36,293.54,293.54,0,0,0,39-58.8,301.92,301.92,0,0,0,20.28-217.7,296.2,296.2,0,0,0-16.63-44.64l0-.11q-5.3-11.3-11.5-22A527.14,527.14,0,0,1,1839.51,163c1.7,1.39,3.34,2.82,5,4.24a233.26,233.26,0,0,1,24.74,24.66c.89,1,1.8,2.06,2.66,3.11,28.36,34.22,44.91,75.35,44.91,119.62q0,5.65-.36,11.24a176.8,176.8,0,0,1-9,45.37,187.32,187.32,0,0,0,18.21-60.28,179.86,179.86,0,0,0,1.42-22,182.92,182.92,0,0,0-15-72.15,202.63,202.63,0,0,0-10.64-21.32c-1.34-2.35-2.81-4.65-4.25-7-1.24-2-2.48-3.95-3.79-5.9A247.62,247.62,0,0,1,1934,204.44a219.51,219.51,0,0,1,33.3,27.23,193.68,193.68,0,0,1,22.53,26.93c18.78,27.23,29.51,58.55,29.51,91.89,0,4.84-.3,9.62-.74,14.37a98.45,98.45,0,0,0-.71-91.75,549,549,0,0,1,56,60.59c3.57,20.73,3.62,44.22-.34,68.81l-26.43,66.71a776.2,776.2,0,0,0-89.14,8.94c-22.1,3.52-43.73,7.87-64.71,13.19-10.67,2.7-21.13,5.7-31.48,8.84a449.48,449.48,0,0,1-53.93,18.95,544.89,544.89,0,0,1-78.58,16q-24.9,3.23-51.07,4.42c-7.36.32-14.78.53-22.27.59-1.92,0-3.82.09-5.76.09V130.13C1651.9,130.12,1653.59,130,1655.31,130Z" transform="translate(-1045.62 -130)"/><path d="M2174.57,1145.57l25.8-84.3c-5.92,39.76-13.39,79.42-25.8,117.72C2175.05,1170.11,2174.57,1154.89,2174.57,1145.57Z" transform="translate(-1045.62 -130)"/><path d="M2135.56,727.91c0-2,0-4.12,0-6.18,0,.74,0,1.48,0,2.23C2135.62,725.29,2135.57,726.59,2135.56,727.91Z" transform="translate(-1045.62 -130)"/><path d="M2135.11,745.12c.24-5.7.4-11.43.45-17.21,0,5.7-.1,11.35-.18,17Z" transform="translate(-1045.62 -130)"/><path d="M2188.53,692.58c-.3,2.12-.6,4.25-.91,6.35l.45-6.38Z" transform="translate(-1045.62 -130)"/><path d="M2135.38,744.89c.08-5.63.14-11.28.18-17,0-1.32.06-2.62.06-3.95,0-.75,0-1.49,0-2.23-.41-91.52-26.14-173.48-66.66-229.42,16.14-30.79,27.67-68,32.85-108.86.79-6.2,1.39-12.5,1.88-18.86,39.52,17.7,71.75,58.19,89.31,110.47,2.73,28.72,4.19,58.86,4.19,89.94s-1.46,61.22-4.19,89.94q-1.83,19.29-4.43,37.64l-.46,0-.45,6.38-15.74,221.7-21.53,116-17.41-139.39-5.71.71c.66-6.73,1.29-13.56,1.87-20.53C2132.53,836.77,2134.7,792,2135.38,744.89Z" transform="translate(-1045.62 -130)"/><path d="M2204.9,986.61c-7.82-3.4-18-.37-29.79,8l5.18-46.23c59.36-54.13,68.11,28.94,65,71-6.1,83.09-38.63,165-70.74,241.31v-40.21C2220.46,1099.53,2234.55,999.49,2204.9,986.61Z" transform="translate(-1045.62 -130)"/><path d="M2181.07,1661.69l-.59.62c.08-1.84.17-3.66.24-5.5C2180.82,1658.44,2181,1660.05,2181.07,1661.69Z" transform="translate(-1045.62 -130)"/><path d="M2167,1409.89l-.35-.23c-.13-.8-.25-1.61-.38-2.41C2166.48,1408.14,2166.73,1409,2167,1409.89Z" transform="translate(-1045.62 -130)"/><path d="M1767,1626.79a80.12,80.12,0,0,1-18.67-7.5C1754.83,1621.59,1761,1624.11,1767,1626.79Z" transform="translate(-1045.62 -130)"/><path d="M2068.71,1363.82l0,0-.11.61C2068.66,1364.25,2068.68,1364,2068.71,1363.82Z" transform="translate(-1045.62 -130)"/><path d="M1739.06,1548l-11.16-5.08.22-.29C1731.85,1544.34,1735.52,1546.09,1739.06,1548Z" transform="translate(-1045.62 -130)"/><path d="M1669,1424.42c1.4-.64,2.82-1.26,4.18-2l47.62-22.73,9.82-4.69a35.43,35.43,0,0,1,19.27.06q5.43,2.89,10.88,5.85,49.73,26.86,101.13,57.39,8.07,4.82,16.19,9.72c13.09,7.91,26.2,15.93,39.38,24.17q45.06,28.2,87.41,56.89,13.63,9.23,26.93,18.46c2.91,1.61,5.81,3.17,8.71,4.75,18.1,7.48,35.62,8.15,49.59.08,23.46-13.54,30.86-47.8,22.16-86.89,4,21,.48,39.61-11.81,51.14-23,21.55-68.42,11.33-107.23-22L2041,1467a42.82,42.82,0,0,0,3.16-3.16,41.33,41.33,0,0,0,4.73-6.53,40.88,40.88,0,0,0,2.43-4.58c2.47-5.92,4.61-12.8,4.68-19.24q2.87-15.53,5.71-31l1.55-8.42,5.42-29.5.11-.61,2.2-12,10.77-58.55c4.48-19,9.8-38.71,16.08-59q3.63-11.76,7.49-23.07c14-41.3,29.77-78.07,45.42-107.2a945.6,945.6,0,0,0-6.13,109.38c0,46.84,3.16,90.92,8.72,129.39q2.58,17.84,5.83,34t7.12,30.41c.13.8.25,1.61.38,2.41,9.69,59.43,15.14,125.59,15.14,195.39,0,10.81-.18,21.5-.44,32.13q-.22,9.87-.6,19.63c-.07,1.84-.16,3.66-.24,5.5-2.88,3.06-5.81,6.26-8.74,9.47-12.55,13.71-25.6,28.64-38.79,44.55-29.1,35.1-53.84,68.71-71.37,96.08a475.23,475.23,0,0,1,39.23-41.33c27.53-25.85,55-46.08,76.42-57.49,1.32-.7,2.66-1.44,3.93-2.07q-.75,17.18-2.58,34c-1.57,14.35-3.77,28.51-6.48,42.49a518.48,518.48,0,0,1-12.58,51c-13.66,45.33-28,96.25-52.79,135.6-24.05,38.25-58.17,67.77-91,98.71s-69.64,55.1-109.61,77.08a563.23,563.23,0,0,0,13.59-80.06c1.71-17.09,2.67-33.61,3-49.18a413.84,413.84,0,0,1-11.1,45.24c-14.26,46.68-34.66,85.6-54.55,107.87-5.81,2.47-11.72,4.75-17.63,7q-12.89,4.93-26.07,9.23a543,543,0,0,1-168.06,26.61c-1.08,0-2.14-.07-3.22-.08V1601.5c39.49.7,76,7.14,106.25,17.79a80.12,80.12,0,0,0,18.67,7.5,87.72,87.72,0,0,0,40.47,1c19.45-4,35.74-14.31,45.13-28.1L1739.06,1548c-3.54-1.92-7.21-3.67-10.94-5.37q-5.1-2.33-10.43-4.37a205.74,205.74,0,0,0-74-13.56c-.57,0-1.13.06-1.71.06v-94.09A66.72,66.72,0,0,0,1669,1424.42Z" transform="translate(-1045.62 -130)"/><path d="M1727.9,1542.93l-10.21-4.66q5.32,2.06,10.43,4.37Z" transform="translate(-1045.62 -130)"/><path d="M2077.77,949.41a40.64,40.64,0,0,0-2.55-3.71c-.19-.24-.44-.42-.63-.65s-.61-.6-.9-.93c-5.72-6.45-13.29-11-22.3-13.67a200.77,200.77,0,0,0-31.49-8c-1.74-.32-3.48-.63-5.28-.93-23.53-3.93-52.78-6.39-84.71-6.78l-1.74,0c0,.31-.09.62-.09.94,0,13.2,6.33,25.62,17.44,36.5,9,8.83,21.22,16.64,35.79,23,.8.35,1.65.66,2.46,1,3.26,1.37,6.59,2.68,10.07,3.9l18.38,8.93,3.49,1.69,19.78,9.61a84.87,84.87,0,0,1,20,19.61,97.32,97.32,0,0,1,9.7,16.29c1.47,3.12,2.83,6.32,4,9.65a110.4,110.4,0,0,1,5.22,22.42,242.16,242.16,0,0,0,7.52-28.19c1.6-7.9,2.77-15.69,3.56-23.29a219.46,219.46,0,0,0,1.18-24,108,108,0,0,0-1.88-18.62C2084.5,964.82,2082.22,956.48,2077.77,949.41Z" transform="translate(-1045.62 -130)"/><path d="M2118.66,1060.15" transform="translate(-1045.62 -130)"/><path d="M2154.21,895.88l-57.34-2-33.18-1.16a102.84,102.84,0,0,0-37.23-30c-1.53-.74-3.07-1.37-4.61-2a421,421,0,0,0-48.22-.89l-2.66.09q-12.13.47-25.11,1.48c-55.29,4.31-121.62,16.11-192.18,35.22-7.64,2.07-15.3,4.19-23,6.43-8.39,2.43-16.65,5-24.84,7.49L1716,925c-3.25,1.72-6.61,3.24-10,4.72a154.37,154.37,0,0,1-46.7,12.32c-5.16.51-10.41.8-15.72.8-.41,0-.81-.06-1.23-.06v58.52c14.72.56,28,10.5,37.84,26.43a107.48,107.48,0,0,1,11.48,26.86,409.35,409.35,0,0,0,21.68,40.55c1.08,1.75,2.2,3.44,3.3,5.17a396.51,396.51,0,0,0,55.91,69.78c1,1,2.07,2,3.1,3a78.57,78.57,0,0,0,24.22,14.86,81,81,0,0,0,13.66,3.88h189.93c19.82-1.69,36.38-6.65,45.27-13.19a19.09,19.09,0,0,0,5.9-6.39c12.52-14,28.35-42.38,41.77-76.84,4.78-12.27,8.79-24.17,12-35.29.64-6.72,2.85-15.55,6.28-25.44a234.41,234.41,0,0,1,10.47-25.16,237,237,0,0,1,13.46-24.1c5.39-1.34,10.59-2.86,15.6-4.51,2.35-.77,4.5-1.67,6.75-2.51V896.12Zm-463.8,131.87a107.11,107.11,0,0,1,11.48,26.86C1697.69,1045.67,1693.83,1036.71,1690.41,1027.75Zm190.16-75.62c-9,8.83-21.21,16.64-35.79,23-.79.35-1.64.66-2.45,1-3.27,1.37-6.6,2.68-10.08,3.9L1813.87,989l-3.49,1.69-19.78,9.61a84.64,84.64,0,0,0-20,19.61,98,98,0,0,0-9.71,16.29c-1.46,3.12-2.83,6.32-4,9.65a109.75,109.75,0,0,0-5.23,22.42,242.16,242.16,0,0,1-7.52-28.19c-1.6-7.9-2.77-15.69-3.56-23.29a219.46,219.46,0,0,1-1.18-24,108,108,0,0,1,1.88-18.62c.3-9.26,2.58-17.6,7-24.67a40.64,40.64,0,0,1,2.55-3.71c.19-.24.44-.42.63-.65s.62-.6.9-.93c5.72-6.45,13.29-11,22.3-13.67a200.77,200.77,0,0,1,31.49-8c1.74-.32,3.48-.63,5.28-.93,23.53-3.93,52.78-6.39,84.71-6.78l1.74,0c0,.31.09.62.09.94C1898,928.83,1891.68,941.25,1880.57,952.13Z" transform="translate(-1045.62 -130)"/><path d="M1701.89,1054.61a107.11,107.11,0,0,0-11.48-26.86C1693.83,1036.71,1697.69,1045.67,1701.89,1054.61Z" transform="translate(-1045.62 -130)"/></g></symbol><symbol id="lnr-arrow-left-circle--white" viewBox="0 0 20 20">
<path fill="#ffffff" d="M2.782 3.782c1.794-1.794 4.18-2.782 6.718-2.782s4.923 0.988 6.718 2.782 2.782 4.18 2.782 6.717-0.988 4.923-2.782 6.718-4.18 2.782-6.718 2.782-4.923-0.988-6.718-2.782-2.782-4.18-2.782-6.718 0.988-4.923 2.782-6.717zM9.5 19c4.687 0 8.5-3.813 8.5-8.5s-3.813-8.5-8.5-8.5c-4.687 0-8.5 3.813-8.5 8.5s3.813 8.5 8.5 8.5z"/>
<path fill="#ffffff" d="M3.647 10.147l4-4c0.195-0.195 0.512-0.195 0.707 0s0.195 0.512 0 0.707l-3.147 3.146h10.293c0.276 0 0.5 0.224 0.5 0.5s-0.224 0.5-0.5 0.5h-10.293l3.146 3.147c0.195 0.195 0.195 0.512 0 0.707-0.098 0.098-0.226 0.146-0.353 0.146s-0.256-0.049-0.353-0.147l-4-4c-0.195-0.195-0.195-0.512 0-0.707z"/>
</symbol><symbol id="lnr-arrow-left-circle" viewBox="0 0 20 20">
<path fill="#000000" d="M2.782 3.782c1.794-1.794 4.18-2.782 6.718-2.782s4.923 0.988 6.718 2.782 2.782 4.18 2.782 6.717-0.988 4.923-2.782 6.718-4.18 2.782-6.718 2.782-4.923-0.988-6.718-2.782-2.782-4.18-2.782-6.718 0.988-4.923 2.782-6.717zM9.5 19c4.687 0 8.5-3.813 8.5-8.5s-3.813-8.5-8.5-8.5c-4.687 0-8.5 3.813-8.5 8.5s3.813 8.5 8.5 8.5z"/>
<path fill="#000000" d="M3.647 10.147l4-4c0.195-0.195 0.512-0.195 0.707 0s0.195 0.512 0 0.707l-3.147 3.146h10.293c0.276 0 0.5 0.224 0.5 0.5s-0.224 0.5-0.5 0.5h-10.293l3.146 3.147c0.195 0.195 0.195 0.512 0 0.707-0.098 0.098-0.226 0.146-0.353 0.146s-0.256-0.049-0.353-0.147l-4-4c-0.195-0.195-0.195-0.512 0-0.707z"/>
</symbol><symbol id="lnr-arrow-right-circle--white" viewBox="0 0 20 20">
<path fill="#ffffff" d="M16.218 3.782c-1.794-1.794-4.18-2.782-6.718-2.782s-4.923 0.988-6.718 2.782-2.782 4.18-2.782 6.717 0.988 4.923 2.782 6.718 4.18 2.782 6.718 2.782 4.923-0.988 6.718-2.782 2.782-4.18 2.782-6.718-0.988-4.923-2.782-6.717zM9.5 19c-4.687 0-8.5-3.813-8.5-8.5s3.813-8.5 8.5-8.5c4.687 0 8.5 3.813 8.5 8.5s-3.813 8.5-8.5 8.5z"/>
<path fill="#ffffff" d="M15.353 10.147l-4-4c-0.195-0.195-0.512-0.195-0.707 0s-0.195 0.512 0 0.707l3.147 3.146h-10.293c-0.276 0-0.5 0.224-0.5 0.5s0.224 0.5 0.5 0.5h10.293l-3.146 3.147c-0.195 0.195-0.195 0.512 0 0.707 0.098 0.098 0.226 0.146 0.353 0.146s0.256-0.049 0.353-0.147l4-4c0.195-0.195 0.195-0.512 0-0.707z"/>
</symbol><symbol id="lnr-arrow-right-circle" viewBox="0 0 20 20">
<path fill="#000000" d="M16.218 3.782c-1.794-1.794-4.18-2.782-6.718-2.782s-4.923 0.988-6.718 2.782-2.782 4.18-2.782 6.717 0.988 4.923 2.782 6.718 4.18 2.782 6.718 2.782 4.923-0.988 6.718-2.782 2.782-4.18 2.782-6.718-0.988-4.923-2.782-6.717zM9.5 19c-4.687 0-8.5-3.813-8.5-8.5s3.813-8.5 8.5-8.5c4.687 0 8.5 3.813 8.5 8.5s-3.813 8.5-8.5 8.5z"/>
<path fill="#000000" d="M15.353 10.147l-4-4c-0.195-0.195-0.512-0.195-0.707 0s-0.195 0.512 0 0.707l3.147 3.146h-10.293c-0.276 0-0.5 0.224-0.5 0.5s0.224 0.5 0.5 0.5h10.293l-3.146 3.147c-0.195 0.195-0.195 0.512 0 0.707 0.098 0.098 0.226 0.146 0.353 0.146s0.256-0.049 0.353-0.147l4-4c0.195-0.195 0.195-0.512 0-0.707z"/>
</symbol><symbol id="lnr-chevron-3" viewBox="0 0 24.1 19">
<style type="text/css">
	.st0{fill:#FFFFFF;}
</style>
<path class="st0" d="M0.6,19c-0.1,0-0.3,0-0.4-0.1c-0.2-0.2-0.2-0.5,0-0.7l8.6-8.6L0.2,0.9c-0.1-0.2-0.1-0.6,0-0.8s0.5-0.2,0.7,0
	l9,9c0.2,0.2,0.2,0.5,0,0.7l-9,9C0.9,19,0.7,19,0.6,19L0.6,19z"/>
<path class="st0" d="M7.7,19c-0.1,0-0.3,0-0.4-0.1c-0.2-0.2-0.2-0.5,0-0.7l8.6-8.6L7.3,0.9c-0.1-0.2-0.1-0.6,0-0.8s0.5-0.2,0.7,0
	l9,9c0.2,0.2,0.2,0.5,0,0.7l-9,9C8,19,7.8,19,7.7,19L7.7,19z"/>
<path class="st0" d="M14.5,19c-0.1,0-0.3,0-0.4-0.1c-0.2-0.2-0.2-0.5,0-0.7l8.6-8.6l-8.5-8.7c-0.2-0.2-0.2-0.5,0-0.7s0.5-0.2,0.7,0
	l9,9c0.2,0.2,0.2,0.5,0,0.7l-9,9C14.8,19,14.6,19,14.5,19L14.5,19z"/>
</symbol><symbol id="lnr-chevron-right" viewBox="0 0 20 20">
<path fill="#ffffff" d="M5 20c-0.128 0-0.256-0.049-0.354-0.146-0.195-0.195-0.195-0.512 0-0.707l8.646-8.646-8.646-8.646c-0.195-0.195-0.195-0.512 0-0.707s0.512-0.195 0.707 0l9 9c0.195 0.195 0.195 0.512 0 0.707l-9 9c-0.098 0.098-0.226 0.146-0.354 0.146z"/>
</symbol><symbol id="lnr-cross" viewBox="0 0 20 20">
<path fill="#ffffff" d="M10.707 10.5l5.646-5.646c0.195-0.195 0.195-0.512 0-0.707s-0.512-0.195-0.707 0l-5.646 5.646-5.646-5.646c-0.195-0.195-0.512-0.195-0.707 0s-0.195 0.512 0 0.707l5.646 5.646-5.646 5.646c-0.195 0.195-0.195 0.512 0 0.707 0.098 0.098 0.226 0.146 0.354 0.146s0.256-0.049 0.354-0.146l5.646-5.646 5.646 5.646c0.098 0.098 0.226 0.146 0.354 0.146s0.256-0.049 0.354-0.146c0.195-0.195 0.195-0.512 0-0.707l-5.646-5.646z"/>
</symbol><symbol id="lnr-envelope" viewBox="0 0 20 20">
<path fill="#000000" d="M17.5 6h-16c-0.827 0-1.5 0.673-1.5 1.5v9c0 0.827 0.673 1.5 1.5 1.5h16c0.827 0 1.5-0.673 1.5-1.5v-9c0-0.827-0.673-1.5-1.5-1.5zM17.5 7c0.030 0 0.058 0.003 0.087 0.008l-7.532 5.021c-0.29 0.193-0.819 0.193-1.109 0l-7.532-5.021c0.028-0.005 0.057-0.008 0.087-0.008h16zM17.5 17h-16c-0.276 0-0.5-0.224-0.5-0.5v-8.566l7.391 4.927c0.311 0.207 0.71 0.311 1.109 0.311s0.798-0.104 1.109-0.311l7.391-4.927v8.566c0 0.276-0.224 0.5-0.5 0.5z"/>
</symbol><symbol id="lnr-location" viewBox="0 0 20 20">
<path fill="#000000" d="M8.5 20c-0.043 0-0.087-0.006-0.13-0.017-0.218-0.059-0.37-0.257-0.37-0.483v-7.5h-7.5c-0.226 0-0.424-0.152-0.483-0.37s0.037-0.449 0.232-0.562l19-11c0.196-0.113 0.444-0.081 0.604 0.079s0.193 0.408 0.079 0.604l-11 19c-0.091 0.157-0.258 0.249-0.433 0.249zM2.362 11h6.138c0.276 0 0.5 0.224 0.5 0.5v6.138l9.128-15.766-15.766 9.128z"/>
</symbol><symbol id="lnr-map-marker" viewBox="0 0 20 20">
<path fill="#000000" d="M10 20c-0.153 0-0.298-0.070-0.393-0.191-0.057-0.073-1.418-1.814-2.797-4.385-0.812-1.513-1.46-2.999-1.925-4.416-0.587-1.787-0.884-3.472-0.884-5.008 0-3.308 2.692-6 6-6s6 2.692 6 6c0 1.536-0.298 3.22-0.884 5.008-0.465 1.417-1.113 2.903-1.925 4.416-1.38 2.571-2.74 4.312-2.797 4.385-0.095 0.121-0.24 0.191-0.393 0.191zM10 1c-2.757 0-5 2.243-5 5 0 3.254 1.463 6.664 2.691 8.951 0.902 1.681 1.809 3.014 2.309 3.71 0.502-0.699 1.415-2.040 2.318-3.726 1.223-2.283 2.682-5.687 2.682-8.935 0-2.757-2.243-5-5-5z"/>
<path fill="#000000" d="M10 9c-1.654 0-3-1.346-3-3s1.346-3 3-3 3 1.346 3 3-1.346 3-3 3zM10 4c-1.103 0-2 0.897-2 2s0.897 2 2 2c1.103 0 2-0.897 2-2s-0.897-2-2-2z"/>
</symbol><symbol id="lnr-menu" viewBox="0 0 20 20">
<path fill="#000000" d="M17.5 6h-15c-0.276 0-0.5-0.224-0.5-0.5s0.224-0.5 0.5-0.5h15c0.276 0 0.5 0.224 0.5 0.5s-0.224 0.5-0.5 0.5z"/>
<path fill="#000000" d="M17.5 11h-15c-0.276 0-0.5-0.224-0.5-0.5s0.224-0.5 0.5-0.5h15c0.276 0 0.5 0.224 0.5 0.5s-0.224 0.5-0.5 0.5z"/>
<path fill="#000000" d="M17.5 16h-15c-0.276 0-0.5-0.224-0.5-0.5s0.224-0.5 0.5-0.5h15c0.276 0 0.5 0.224 0.5 0.5s-0.224 0.5-0.5 0.5z"/>
</symbol><symbol id="lnr-phone-handset" viewBox="0 0 20 20">
<path fill="#000000" d="M16 20c-1.771 0-3.655-0.502-5.6-1.492-1.793-0.913-3.564-2.22-5.122-3.78s-2.863-3.333-3.775-5.127c-0.988-1.946-1.49-3.83-1.49-5.601 0-1.148 1.070-2.257 1.529-2.68 0.661-0.609 1.701-1.32 2.457-1.32 0.376 0 0.816 0.246 1.387 0.774 0.425 0.394 0.904 0.928 1.383 1.544 0.289 0.372 1.73 2.271 1.73 3.182 0 0.747-0.845 1.267-1.739 1.816-0.346 0.212-0.703 0.432-0.961 0.639-0.276 0.221-0.325 0.338-0.333 0.364 0.949 2.366 3.85 5.267 6.215 6.215 0.021-0.007 0.138-0.053 0.363-0.333 0.207-0.258 0.427-0.616 0.639-0.961 0.55-0.894 1.069-1.739 1.816-1.739 0.911 0 2.81 1.441 3.182 1.73 0.616 0.479 1.15 0.958 1.544 1.383 0.528 0.57 0.774 1.011 0.774 1.387 0 0.756-0.711 1.799-1.319 2.463-0.424 0.462-1.533 1.537-2.681 1.537zM3.994 1c-0.268 0.005-0.989 0.333-1.773 1.055-0.744 0.686-1.207 1.431-1.207 1.945 0 6.729 8.264 15 14.986 15 0.513 0 1.258-0.465 1.944-1.213 0.723-0.788 1.051-1.512 1.056-1.781-0.032-0.19-0.558-0.929-1.997-2.037-1.237-0.952-2.24-1.463-2.498-1.469-0.018 0.005-0.13 0.048-0.357 0.336-0.197 0.251-0.408 0.594-0.613 0.926-0.56 0.911-1.089 1.772-1.858 1.772-0.124 0-0.246-0.024-0.363-0.071-2.625-1.050-5.729-4.154-6.779-6.779-0.126-0.315-0.146-0.809 0.474-1.371 0.33-0.299 0.786-0.579 1.228-0.851 0.332-0.204 0.676-0.415 0.926-0.613 0.288-0.227 0.331-0.339 0.336-0.357-0.007-0.258-0.517-1.261-1.469-2.498-1.108-1.439-1.847-1.964-2.037-1.997z"/>
</symbol><symbol id="lnr-users" viewBox="0 0 20 20">
<path fill="#000000" d="M18.5 18h-11c-0.827 0-1.5-0.673-1.5-1.5 0-0.048 0.011-1.19 0.924-2.315 0.525-0.646 1.241-1.158 2.128-1.522 1.071-0.44 2.4-0.662 3.948-0.662s2.876 0.223 3.948 0.662c0.887 0.364 1.603 0.876 2.128 1.522 0.914 1.125 0.924 2.267 0.924 2.315 0 0.827-0.673 1.5-1.5 1.5zM7 16.503c0.001 0.275 0.225 0.497 0.5 0.497h11c0.275 0 0.499-0.223 0.5-0.497-0.001-0.035-0.032-0.895-0.739-1.734-0.974-1.157-2.793-1.768-5.261-1.768s-4.287 0.612-5.261 1.768c-0.707 0.84-0.738 1.699-0.739 1.734z"/>
<path fill="#000000" d="M13 11c-2.206 0-4-1.794-4-4s1.794-4 4-4 4 1.794 4 4c0 2.206-1.794 4-4 4zM13 4c-1.654 0-3 1.346-3 3s1.346 3 3 3 3-1.346 3-3-1.346-3-3-3z"/>
<path fill="#000000" d="M4.5 18h-3c-0.827 0-1.5-0.673-1.5-1.5 0-0.037 0.008-0.927 0.663-1.8 0.378-0.505 0.894-0.904 1.533-1.188 0.764-0.34 1.708-0.512 2.805-0.512 0.179 0 0.356 0.005 0.527 0.014 0.276 0.015 0.487 0.25 0.473 0.526s-0.25 0.488-0.526 0.473c-0.153-0.008-0.312-0.012-0.473-0.012-3.894 0-3.997 2.379-4 2.503 0.001 0.274 0.225 0.497 0.5 0.497h3c0.276 0 0.5 0.224 0.5 0.5s-0.224 0.5-0.5 0.5z"/>
<path fill="#000000" d="M5 12c-1.654 0-3-1.346-3-3s1.346-3 3-3 3 1.346 3 3-1.346 3-3 3zM5 7c-1.103 0-2 0.897-2 2s0.897 2 2 2 2-0.897 2-2c0-1.103-0.897-2-2-2z"/>
</symbol></svg>