<?xml version="1.0" encoding="utf-8"?>
<!-- Generator: Adobe Illustrator 22.1.0, SVG Export Plug-In . SVG Version: 6.00 Build 0)  -->
<svg version="1.1" id="Layer_1" xmlns="http://www.w3.org/2000/svg" xmlns:xlink="http://www.w3.org/1999/xlink" x="0px" y="0px"
	 viewBox="0 0 24.1 19" style="enable-background:new 0 0 24.1 19;" xml:space="preserve">
<style type="text/css">
	.st0{fill:#FFFFFF;}
</style>
<path class="st0" d="M0.6,19c-0.1,0-0.3,0-0.4-0.1c-0.2-0.2-0.2-0.5,0-0.7l8.6-8.6L0.2,0.9c-0.1-0.2-0.1-0.6,0-0.8s0.5-0.2,0.7,0
	l9,9c0.2,0.2,0.2,0.5,0,0.7l-9,9C0.9,19,0.7,19,0.6,19L0.6,19z"/>
<path class="st0" d="M7.7,19c-0.1,0-0.3,0-0.4-0.1c-0.2-0.2-0.2-0.5,0-0.7l8.6-8.6L7.3,0.9c-0.1-0.2-0.1-0.6,0-0.8s0.5-0.2,0.7,0
	l9,9c0.2,0.2,0.2,0.5,0,0.7l-9,9C8,19,7.8,19,7.7,19L7.7,19z"/>
<path class="st0" d="M14.5,19c-0.1,0-0.3,0-0.4-0.1c-0.2-0.2-0.2-0.5,0-0.7l8.6-8.6l-8.5-8.7c-0.2-0.2-0.2-0.5,0-0.7s0.5-0.2,0.7,0
	l9,9c0.2,0.2,0.2,0.5,0,0.7l-9,9C14.8,19,14.6,19,14.5,19L14.5,19z"/>
</svg>
